PathFileType	4	(X/Y/Z)	C:\Users\86182\Documents\cortex\Trimmed_M3_L5.trc
DataRate	CameraRate	NumFrames	NumMarkers	Units	OrigDataRate	OrigDataStartFrame	OrigNumFrames
100.00	100.00	       70	2	mm	100.00	361	       901
Frame#	Time	gripper			box			
		X1	Y1	Z1	X2	Y2	Z2	

361	3.600	273.34949	149.87225	292.97574	274.81473	148.48491	157.41537	
362	3.610	273.40945	149.88678	293.05099	274.83734	148.48589	157.48993	
363	3.620	273.46359	149.91673	293.12476	274.77719	148.47295	157.48972	
364	3.630	273.46707	149.91766	293.12869	274.81021	148.46599	157.50211	
365	3.640	273.46542	149.92168	293.11273	274.82120	148.46434	157.51375	
366	3.650	273.46805	149.91231	293.13507	274.83688	148.46199	157.53033	
367	3.660	273.49103	149.94728	293.17566	274.83688	148.46199	157.53033	
368	3.670	273.48123	149.92957	293.15710	274.83688	148.46199	157.53033	
369	3.680	273.49316	149.92657	293.14182	274.83688	148.46199	157.53033	
370	3.690	273.49292	149.92323	293.13562	274.83688	148.46199	157.53033	
371	3.700	273.48196	149.90514	293.11069	274.82568	148.46367	157.51846	
372	3.710	273.47345	149.90704	293.11578	274.83688	148.46199	157.53033	
373	3.720	273.45248	149.90031	293.09018	274.83688	148.46004	157.52705	
374	3.730	273.46976	149.90788	293.08646	274.83688	148.46199	157.53033	
375	3.740	273.48621	149.91141	293.11865	274.82568	148.46367	157.51846	
376	3.750	273.49274	149.91989	293.12946	274.83688	148.46199	157.53033	
377	3.760	273.49268	149.91879	293.12741	274.83688	148.46199	157.53033	
378	3.770	273.49301	149.92688	293.14001	274.83688	148.46199	157.53033	
379	3.780	273.47830	149.90393	293.08817	274.83014	148.45721	157.51344	
380	3.790	273.39423	149.86525	293.00922	274.78171	148.39409	157.40231	
381	3.800	273.39008	149.85551	292.95828	274.73248	148.28737	157.33025	
382	3.810	273.38690	149.82387	292.87616	274.61459	148.18271	157.28735	
383	3.820	273.48502	149.81332	292.82690	274.67828	148.13857	157.26692	
384	3.830	273.50494	149.81198	292.81573	274.64474	148.14143	157.23807	
385	3.840	273.50494	149.81198	292.81573	274.62305	148.14792	157.21027	
386	3.850	273.50494	149.81198	292.81573	274.67514	148.11815	157.19283	
387	3.860	273.50494	149.81198	292.81573	274.63272	148.15410	157.19933	
388	3.870	273.50052	149.81229	292.81821	274.66772	148.15926	157.23132	
389	3.880	273.50269	149.81215	292.81699	274.64981	148.15910	157.26414	
390	3.890	273.48947	149.81302	292.82440	274.65280	148.16347	157.27539	
391	3.900	273.45706	149.81432	292.84396	274.65671	148.16019	157.27498	
392	3.910	273.43588	149.81416	292.85822	274.67972	148.14073	157.27248	
393	3.920	273.47305	149.81377	292.83420	274.67972	148.14073	157.27248	
394	3.930	273.49170	149.81287	292.82318	274.72403	148.10576	157.26605	
395	3.940	273.50494	149.81198	292.81573	274.72440	148.10110	157.25305	
396	3.950	273.50494	149.81198	292.81573	274.73419	148.09964	157.19028	
397	3.960	273.50494	149.81198	292.81573	274.70370	148.10803	157.20927	
398	3.970	273.50494	149.81198	292.81573	274.70557	148.11064	157.19353	
399	3.980	273.50494	149.81198	292.81573	274.71289	148.14052	157.24216	
400	3.990	273.50494	149.81198	292.81573	274.70956	148.11295	157.23082	
401	4.000	273.50494	149.81198	292.81573	274.66605	148.14716	157.26534	
402	4.010	273.48013	149.81262	292.83121	274.66824	148.15044	157.27373	
403	4.020	273.46832	149.81357	292.83762	274.68732	148.13435	157.27167	
404	4.030	273.48059	149.81361	292.82941	274.67590	148.14397	157.27289	
405	4.040	273.45642	149.81453	292.84406	274.66440	148.15367	157.27412	
406	4.050	273.50494	149.81198	292.81573	274.69489	148.12796	157.27084	
407	4.060	273.50494	149.81198	292.81573	274.69330	148.12910	157.19731	
408	4.070	273.50494	149.81198	292.81573	274.69995	148.11168	157.22174	
409	4.080	273.50494	149.81198	292.81573	274.67056	148.11726	157.22104	
410	4.090	273.50494	149.81198	292.81573	274.66919	148.12645	157.20955	
411	4.100	273.50494	149.81198	292.81573	274.70108	148.10049	157.23285	
412	4.110	273.50494	149.81198	292.81573	274.72296	148.10123	157.26022	
413	4.120	273.50494	149.81198	292.81573	274.69489	148.12796	157.27084	
414	4.130	273.48285	149.81346	292.82816	274.72061	148.10020	157.25668	
415	4.140	273.47098	149.81270	292.83713	274.67807	148.07172	157.29382	
416	4.150	273.48947	149.81302	292.82440	274.67758	148.08960	157.28864	
417	4.160	273.47012	149.81413	292.83557	274.70654	148.10966	157.25537	
418	4.170	273.50494	149.81198	292.81573	274.70615	148.11842	157.26961	
419	4.180	273.50494	149.81198	292.81573	274.65427	148.15671	157.25458	
420	4.190	273.49612	149.81258	292.82068	274.70993	148.12694	157.20436	
421	4.200	273.50494	149.81198	292.81573	274.65463	148.14815	157.25201	
422	4.210	273.49301	149.81245	292.82294	274.68576	148.11290	157.22221	
423	4.220	273.50052	149.81229	292.81821	274.68579	148.11331	157.23433	
424	4.230	273.45212	149.81534	292.84570	274.70346	148.11394	157.25853	
425	4.240	273.48172	149.81268	292.83008	274.71603	148.10670	157.26288	
426	4.250	273.42648	149.81425	292.86432	274.67419	148.08636	157.28749	
427	4.260	273.44086	149.81314	292.85645	274.69409	148.08444	157.28421	
428	4.270	273.46274	149.81479	292.83948	274.67545	148.10016	157.28622	
429	4.280	273.46341	149.81458	292.83936	274.67209	148.14717	157.27330	
430	4.290	273.49829	149.81244	292.81946	274.70551	148.10330	157.26100	
